<?xml version="1.0" encoding="utf-8"?>
<!-- Generator: Adobe Illustrator 18.1.0, SVG Export Plug-In . SVG Version: 6.00 Build 0)  -->
<svg version="1.0" id="Layer_1" xmlns="http://www.w3.org/2000/svg" xmlns:xlink="http://www.w3.org/1999/xlink" x="0px" y="0px"
	 viewBox="0 0 150 150" enable-background="new 0 0 150 150" xml:space="preserve">
<g>
	<path fill="none" d="M104.8,34.3L76.1,17.1L47.4,34.3v30.9L20.3,81.5v32.8L49,131.5l27.1-16.3l27.1,16.3l28.7-17.3V81.5l-27.1-16.3
		V34.3z M47.3,126.9l-23.9-14.4V85.2l23.9,14.4V126.9z M25,82.4L48.9,68l24,14.4L49,96.8L25,82.4z M74.5,112.4l-23.9,14.4V99.6
		l23.9-14.4V112.4z M74.5,79.6L50.6,65.2V38l23.9,14.3V79.6z M52.1,35.2l24-14.4l24,14.4l-24,14.4L52.1,35.2z M101.6,37.9v27.3
		L77.7,79.5V52.3L101.6,37.9z M101.6,126.9l-23.9-14.4V85.2l23.9,14.4V126.9z M128.7,112.4l-23.9,14.4V99.6l23.9-14.4V112.4z
		 M127.2,82.4l-24,14.5L79.2,82.4l24-14.4L127.2,82.4z"/>
	<polygon fill="#B8695A" points="77.7,112.5 101.6,126.9 101.6,99.6 77.7,85.2 	"/>
	<polygon fill="#4A9580" points="50.6,126.8 74.5,112.4 74.5,85.2 50.6,99.6 	"/>
	<polygon fill="#2CB896" points="23.5,112.5 47.3,126.9 47.3,99.6 23.5,85.2 	"/>
	<polygon fill="#B8695A" points="79.2,82.4 103.2,96.8 127.2,82.4 103.2,68 	"/>
	<polygon fill="#2CB896" points="48.9,68 25,82.4 49,96.8 72.9,82.4 	"/>
	<polygon fill="#00B9E6" points="76.1,20.8 52.1,35.2 76.1,49.6 100.1,35.2 	"/>
	<polygon fill="#007799" points="77.7,79.5 101.6,65.2 101.6,37.9 77.7,52.3 	"/>
	<polygon fill="#F05E50" points="104.8,126.8 128.7,112.4 128.7,85.2 104.8,99.6 	"/>
	<polygon fill="#00B9E6" points="50.6,65.2 74.5,79.6 74.5,52.3 50.6,38 	"/>
	<path fill="#007799" d="M135.8,75l-23.4-14.1V34.3V30l-3.7-2.2L80,10.5l-3.9-2.3l-3.9,2.3L43.5,27.7l-3.7,2.2v4.3v26.6L16.4,75
		l-3.7,2.2v4.3v32.8v4.3l3.7,2.2L45.1,138l3.9,2.3l3.9-2.3l23.2-13.9L99.3,138l3.9,2.3l3.9-2.3l28.7-17.3l3.7-2.2v-4.3V81.5v-4.3
		L135.8,75z M131.9,114.2l-28.7,17.3l-27.1-16.3L49,131.5l-28.7-17.2V81.5l27.1-16.3V34.3l28.7-17.2l28.7,17.2v30.9l27.1,16.3V114.2
		z"/>
</g>
</svg>
